<svg xmlns="http://www.w3.org/2000/svg" viewBox="0 0 128 128" role="img" aria-label="Nexis"><defs><linearGradient id="bg" x1="0" y1="0" x2="1" y2="1"><stop stop-color="#063552"/><stop offset="1" stop-color="#001b2f"/></linearGradient><linearGradient id="orange" x1="0" y1="0" x2="1" y2="1"><stop stop-color="#ffad19"/><stop offset="1" stop-color="#ff7900"/></linearGradient></defs><rect x="3" y="3" width="122" height="122" rx="25" fill="url(#bg)"/><path d="M25 77 34 37c1.2-5.3 4.8-8 10.6-8h15.7c4.2 0 7.2 1.7 9.4 5.1L88 63l6-28c.8-4 3.2-6 7.3-6H111l-3.7 21.7c-.8 4.8.7 8 5.4 10.1 7.4 3.3 12.3 7.2 13.8 12.7l-5.3 27.7c-.8 4-3 6-6.6 6-4 0-6.1-2.1-6.5-6.5-.8-8.3-5.7-13-14.7-14.2H69c-5.2 0-9-2.1-11.4-6.4L46 58.5 41 81c-.8 3.9-3.2 5.9-7.2 5.9H27c-3.2 0-4-3.2-2-9.9Z" fill="url(#orange)"/><circle cx="39" cy="100" r="8.5" fill="url(#orange)"/><circle cx="88" cy="100" r="8.5" fill="url(#orange)"/><path d="M54 96h21c-1.5 3-1.5 6 0 9H53c1.7-3 2-6 .9-9Z" fill="url(#orange)"/></svg>