<svg width="256" height="256" viewBox="0 0 256 256" fill="none" xmlns="http://www.w3.org/2000/svg">
  <rect x="8" y="8" width="240" height="240" rx="42" fill="#042E56"/>
  <path d="M53 150L74 72C75.5 66 81 62 87 62H130C135 62 139.7 64.6 142.4 69L174.5 121.5L186.5 72C187.8 66.3 192.9 62.2 198.8 62.2H219L211 102C209.8 107.9 212.7 113.9 218 116.8L225 120.7C234.5 126 239.4 136.8 237.2 147.5L228.2 191.2C227.1 196.6 222.4 200.4 216.9 200.4H208.5C207.2 188.1 196.9 178.5 184.3 178.5C171.7 178.5 161.4 188.1 160.1 200.4H102.3C103.6 188.1 93.3 178.5 80.7 178.5C68.1 178.5 57.8 188.1 56.5 200.4H49.4C46.3 200.4 43.5 197.6 43.5 194.5C43.5 194 43.6 193.5 43.7 193L47.8 176.8H119.2L112 166H59.3C54.8 166 51.8 161.8 53 157.5V150Z" fill="#FFA400"/>
  <circle cx="80" cy="200" r="15" fill="#FFA400"/>
  <circle cx="184" cy="200" r="15" fill="#FFA400"/>
</svg>
